<mxfile host="app.diagrams.net" modified="2023-10-01T15:04:31.252Z" agent="Mozilla/5.0 (Windows NT 10.0; Win64; x64) AppleWebKit/537.36 (KHTML, like Gecko) Chrome/117.0.0.0 Safari/537.36" etag="B84KUu4tr6TSblsqEOka" version="22.0.0" type="github">
  <diagram id="R2lEEEUBdFMjLlhIrx00" name="Page-1">
    <mxGraphModel dx="1900" dy="534" grid="1" gridSize="10" guides="1" tooltips="1" connect="1" arrows="1" fold="1" page="1" pageScale="1" pageWidth="850" pageHeight="1100" math="0" shadow="0" extFonts="Permanent Marker^https://fonts.googleapis.com/css?family=Permanent+Marker">
      <root>
        <mxCell id="0" />
        <mxCell id="1" parent="0" />
        <mxCell id="fpgdIOVgUfdw2cn759-M-192" style="edgeStyle=orthogonalEdgeStyle;rounded=0;orthogonalLoop=1;jettySize=auto;html=1;exitX=1;exitY=0.25;exitDx=0;exitDy=0;entryX=0;entryY=0.5;entryDx=0;entryDy=0;startArrow=ERmany;startFill=0;endArrow=ERmandOne;endFill=0;strokeColor=#dd1d1d;" edge="1" parent="1" source="fpgdIOVgUfdw2cn759-M-156" target="fpgdIOVgUfdw2cn759-M-170">
          <mxGeometry relative="1" as="geometry" />
        </mxCell>
        <mxCell id="fpgdIOVgUfdw2cn759-M-156" value="Students" style="shape=table;startSize=30;container=1;collapsible=1;childLayout=tableLayout;fixedRows=1;rowLines=0;fontStyle=1;align=center;resizeLast=1;swimlaneFillColor=none;fillColor=#f8cecc;strokeColor=#dd1d1d;" vertex="1" parent="1">
          <mxGeometry x="-50" y="200" width="230" height="150" as="geometry" />
        </mxCell>
        <mxCell id="fpgdIOVgUfdw2cn759-M-157" value="" style="shape=tableRow;horizontal=0;startSize=0;swimlaneHead=0;swimlaneBody=0;collapsible=0;dropTarget=0;points=[[0,0.5],[1,0.5]];portConstraint=eastwest;top=0;left=0;right=0;bottom=1;swimlaneFillColor=none;fillColor=#f8cecc;strokeColor=#dd1d1d;" vertex="1" parent="fpgdIOVgUfdw2cn759-M-156">
          <mxGeometry y="30" width="230" height="30" as="geometry" />
        </mxCell>
        <mxCell id="fpgdIOVgUfdw2cn759-M-158" value="PK" style="shape=partialRectangle;overflow=hidden;connectable=0;top=0;left=0;bottom=0;right=0;fontStyle=1;swimlaneFillColor=none;fillColor=#f8cecc;strokeColor=#dd1d1d;" vertex="1" parent="fpgdIOVgUfdw2cn759-M-157">
          <mxGeometry width="30" height="30" as="geometry">
            <mxRectangle width="30" height="30" as="alternateBounds" />
          </mxGeometry>
        </mxCell>
        <mxCell id="fpgdIOVgUfdw2cn759-M-159" value="student_id char(10) NOT NULL " style="shape=partialRectangle;overflow=hidden;connectable=0;align=left;top=0;left=0;bottom=0;right=0;spacingLeft=6;fontStyle=5;swimlaneFillColor=none;fillColor=#f8cecc;strokeColor=#dd1d1d;" vertex="1" parent="fpgdIOVgUfdw2cn759-M-157">
          <mxGeometry x="30" width="200" height="30" as="geometry">
            <mxRectangle width="200" height="30" as="alternateBounds" />
          </mxGeometry>
        </mxCell>
        <mxCell id="fpgdIOVgUfdw2cn759-M-160" value="" style="shape=tableRow;horizontal=0;startSize=0;swimlaneHead=0;swimlaneBody=0;collapsible=0;dropTarget=0;points=[[0,0.5],[1,0.5]];portConstraint=eastwest;top=0;left=0;right=0;bottom=0;swimlaneFillColor=none;fillColor=#f8cecc;strokeColor=#dd1d1d;" vertex="1" parent="fpgdIOVgUfdw2cn759-M-156">
          <mxGeometry y="60" width="230" height="30" as="geometry" />
        </mxCell>
        <mxCell id="fpgdIOVgUfdw2cn759-M-161" value="" style="shape=partialRectangle;overflow=hidden;connectable=0;top=0;left=0;bottom=0;right=0;swimlaneFillColor=none;fillColor=#f8cecc;strokeColor=#dd1d1d;" vertex="1" parent="fpgdIOVgUfdw2cn759-M-160">
          <mxGeometry width="30" height="30" as="geometry">
            <mxRectangle width="30" height="30" as="alternateBounds" />
          </mxGeometry>
        </mxCell>
        <mxCell id="fpgdIOVgUfdw2cn759-M-162" value="student_name char(50)" style="shape=partialRectangle;overflow=hidden;connectable=0;align=left;top=0;left=0;bottom=0;right=0;spacingLeft=6;swimlaneFillColor=none;fillColor=#f8cecc;strokeColor=#dd1d1d;" vertex="1" parent="fpgdIOVgUfdw2cn759-M-160">
          <mxGeometry x="30" width="200" height="30" as="geometry">
            <mxRectangle width="200" height="30" as="alternateBounds" />
          </mxGeometry>
        </mxCell>
        <mxCell id="fpgdIOVgUfdw2cn759-M-163" value="" style="shape=tableRow;horizontal=0;startSize=0;swimlaneHead=0;swimlaneBody=0;collapsible=0;dropTarget=0;points=[[0,0.5],[1,0.5]];portConstraint=eastwest;top=0;left=0;right=0;bottom=0;swimlaneFillColor=none;fillColor=#f8cecc;strokeColor=#dd1d1d;" vertex="1" parent="fpgdIOVgUfdw2cn759-M-156">
          <mxGeometry y="90" width="230" height="30" as="geometry" />
        </mxCell>
        <mxCell id="fpgdIOVgUfdw2cn759-M-164" value="" style="shape=partialRectangle;overflow=hidden;connectable=0;top=0;left=0;bottom=0;right=0;swimlaneFillColor=none;fillColor=#f8cecc;strokeColor=#dd1d1d;" vertex="1" parent="fpgdIOVgUfdw2cn759-M-163">
          <mxGeometry width="30" height="30" as="geometry">
            <mxRectangle width="30" height="30" as="alternateBounds" />
          </mxGeometry>
        </mxCell>
        <mxCell id="fpgdIOVgUfdw2cn759-M-165" value="student_major char(50)" style="shape=partialRectangle;overflow=hidden;connectable=0;align=left;top=0;left=0;bottom=0;right=0;spacingLeft=6;swimlaneFillColor=none;fillColor=#f8cecc;strokeColor=#dd1d1d;" vertex="1" parent="fpgdIOVgUfdw2cn759-M-163">
          <mxGeometry x="30" width="200" height="30" as="geometry">
            <mxRectangle width="200" height="30" as="alternateBounds" />
          </mxGeometry>
        </mxCell>
        <mxCell id="fpgdIOVgUfdw2cn759-M-166" value="" style="shape=tableRow;horizontal=0;startSize=0;swimlaneHead=0;swimlaneBody=0;collapsible=0;dropTarget=0;points=[[0,0.5],[1,0.5]];portConstraint=eastwest;top=0;left=0;right=0;bottom=0;swimlaneFillColor=none;fillColor=#f8cecc;strokeColor=#dd1d1d;" vertex="1" parent="fpgdIOVgUfdw2cn759-M-156">
          <mxGeometry y="120" width="230" height="30" as="geometry" />
        </mxCell>
        <mxCell id="fpgdIOVgUfdw2cn759-M-167" value="" style="shape=partialRectangle;overflow=hidden;connectable=0;top=0;left=0;bottom=0;right=0;swimlaneFillColor=none;fillColor=#f8cecc;strokeColor=#dd1d1d;" vertex="1" parent="fpgdIOVgUfdw2cn759-M-166">
          <mxGeometry width="30" height="30" as="geometry">
            <mxRectangle width="30" height="30" as="alternateBounds" />
          </mxGeometry>
        </mxCell>
        <mxCell id="fpgdIOVgUfdw2cn759-M-168" value="student_gender char(10)" style="shape=partialRectangle;overflow=hidden;connectable=0;align=left;top=0;left=0;bottom=0;right=0;spacingLeft=6;swimlaneFillColor=none;fillColor=#f8cecc;strokeColor=#dd1d1d;" vertex="1" parent="fpgdIOVgUfdw2cn759-M-166">
          <mxGeometry x="30" width="200" height="30" as="geometry">
            <mxRectangle width="200" height="30" as="alternateBounds" />
          </mxGeometry>
        </mxCell>
        <mxCell id="fpgdIOVgUfdw2cn759-M-194" style="edgeStyle=orthogonalEdgeStyle;rounded=0;orthogonalLoop=1;jettySize=auto;html=1;entryX=0.75;entryY=0;entryDx=0;entryDy=0;startArrow=ERzeroToMany;startFill=0;endArrow=ERzeroToMany;endFill=0;strokeColor=#dd1d1d;" edge="1" parent="1" source="fpgdIOVgUfdw2cn759-M-169" target="fpgdIOVgUfdw2cn759-M-186">
          <mxGeometry relative="1" as="geometry" />
        </mxCell>
        <mxCell id="fpgdIOVgUfdw2cn759-M-169" value="Groups" style="shape=table;startSize=30;container=1;collapsible=1;childLayout=tableLayout;fixedRows=1;rowLines=0;fontStyle=1;align=center;resizeLast=1;swimlaneFillColor=none;fillColor=#f8cecc;strokeColor=#dd1d1d;" vertex="1" parent="1">
          <mxGeometry x="220" y="70" width="200" height="120" as="geometry" />
        </mxCell>
        <mxCell id="fpgdIOVgUfdw2cn759-M-170" value="" style="shape=tableRow;horizontal=0;startSize=0;swimlaneHead=0;swimlaneBody=0;collapsible=0;dropTarget=0;points=[[0,0.5],[1,0.5]];portConstraint=eastwest;top=0;left=0;right=0;bottom=1;swimlaneFillColor=none;fillColor=#f8cecc;strokeColor=#dd1d1d;" vertex="1" parent="fpgdIOVgUfdw2cn759-M-169">
          <mxGeometry y="30" width="200" height="30" as="geometry" />
        </mxCell>
        <mxCell id="fpgdIOVgUfdw2cn759-M-171" value="PK" style="shape=partialRectangle;overflow=hidden;connectable=0;top=0;left=0;bottom=0;right=0;fontStyle=1;swimlaneFillColor=none;fillColor=#f8cecc;strokeColor=#dd1d1d;" vertex="1" parent="fpgdIOVgUfdw2cn759-M-170">
          <mxGeometry width="30" height="30" as="geometry">
            <mxRectangle width="30" height="30" as="alternateBounds" />
          </mxGeometry>
        </mxCell>
        <mxCell id="fpgdIOVgUfdw2cn759-M-172" value="groups_id int NOT NULL " style="shape=partialRectangle;overflow=hidden;connectable=0;align=left;top=0;left=0;bottom=0;right=0;spacingLeft=6;fontStyle=5;swimlaneFillColor=none;fillColor=#f8cecc;strokeColor=#dd1d1d;" vertex="1" parent="fpgdIOVgUfdw2cn759-M-170">
          <mxGeometry x="30" width="170" height="30" as="geometry">
            <mxRectangle width="170" height="30" as="alternateBounds" />
          </mxGeometry>
        </mxCell>
        <mxCell id="fpgdIOVgUfdw2cn759-M-173" value="" style="shape=tableRow;horizontal=0;startSize=0;swimlaneHead=0;swimlaneBody=0;collapsible=0;dropTarget=0;points=[[0,0.5],[1,0.5]];portConstraint=eastwest;top=0;left=0;right=0;bottom=0;swimlaneFillColor=none;fillColor=#f8cecc;strokeColor=#dd1d1d;" vertex="1" parent="fpgdIOVgUfdw2cn759-M-169">
          <mxGeometry y="60" width="200" height="30" as="geometry" />
        </mxCell>
        <mxCell id="fpgdIOVgUfdw2cn759-M-174" value="" style="shape=partialRectangle;overflow=hidden;connectable=0;top=0;left=0;bottom=0;right=0;swimlaneFillColor=none;fillColor=#f8cecc;strokeColor=#dd1d1d;" vertex="1" parent="fpgdIOVgUfdw2cn759-M-173">
          <mxGeometry width="30" height="30" as="geometry">
            <mxRectangle width="30" height="30" as="alternateBounds" />
          </mxGeometry>
        </mxCell>
        <mxCell id="fpgdIOVgUfdw2cn759-M-175" value="groups_name char(10)" style="shape=partialRectangle;overflow=hidden;connectable=0;align=left;top=0;left=0;bottom=0;right=0;spacingLeft=6;swimlaneFillColor=none;fillColor=#f8cecc;strokeColor=#dd1d1d;" vertex="1" parent="fpgdIOVgUfdw2cn759-M-173">
          <mxGeometry x="30" width="170" height="30" as="geometry">
            <mxRectangle width="170" height="30" as="alternateBounds" />
          </mxGeometry>
        </mxCell>
        <mxCell id="fpgdIOVgUfdw2cn759-M-176" value="" style="shape=tableRow;horizontal=0;startSize=0;swimlaneHead=0;swimlaneBody=0;collapsible=0;dropTarget=0;points=[[0,0.5],[1,0.5]];portConstraint=eastwest;top=0;left=0;right=0;bottom=0;swimlaneFillColor=none;fillColor=#f8cecc;strokeColor=#dd1d1d;" vertex="1" parent="fpgdIOVgUfdw2cn759-M-169">
          <mxGeometry y="90" width="200" height="30" as="geometry" />
        </mxCell>
        <mxCell id="fpgdIOVgUfdw2cn759-M-177" value="" style="shape=partialRectangle;overflow=hidden;connectable=0;top=0;left=0;bottom=0;right=0;swimlaneFillColor=none;fillColor=#f8cecc;strokeColor=#dd1d1d;" vertex="1" parent="fpgdIOVgUfdw2cn759-M-176">
          <mxGeometry width="30" height="30" as="geometry">
            <mxRectangle width="30" height="30" as="alternateBounds" />
          </mxGeometry>
        </mxCell>
        <mxCell id="fpgdIOVgUfdw2cn759-M-178" value="groups_members int(10)" style="shape=partialRectangle;overflow=hidden;connectable=0;align=left;top=0;left=0;bottom=0;right=0;spacingLeft=6;swimlaneFillColor=none;fillColor=#f8cecc;strokeColor=#dd1d1d;" vertex="1" parent="fpgdIOVgUfdw2cn759-M-176">
          <mxGeometry x="30" width="170" height="30" as="geometry">
            <mxRectangle width="170" height="30" as="alternateBounds" />
          </mxGeometry>
        </mxCell>
        <mxCell id="fpgdIOVgUfdw2cn759-M-179" value="Teachers" style="shape=table;startSize=30;container=1;collapsible=1;childLayout=tableLayout;fixedRows=1;rowLines=0;fontStyle=1;align=center;resizeLast=1;swimlaneFillColor=none;fillColor=#f8cecc;strokeColor=#dd1d1d;" vertex="1" parent="1">
          <mxGeometry x="290" y="360" width="200" height="90" as="geometry" />
        </mxCell>
        <mxCell id="fpgdIOVgUfdw2cn759-M-180" value="" style="shape=tableRow;horizontal=0;startSize=0;swimlaneHead=0;swimlaneBody=0;collapsible=0;dropTarget=0;points=[[0,0.5],[1,0.5]];portConstraint=eastwest;top=0;left=0;right=0;bottom=1;swimlaneFillColor=none;fillColor=#f8cecc;strokeColor=#dd1d1d;" vertex="1" parent="fpgdIOVgUfdw2cn759-M-179">
          <mxGeometry y="30" width="200" height="30" as="geometry" />
        </mxCell>
        <mxCell id="fpgdIOVgUfdw2cn759-M-181" value="PK" style="shape=partialRectangle;overflow=hidden;connectable=0;top=0;left=0;bottom=0;right=0;fontStyle=1;swimlaneFillColor=none;fillColor=#f8cecc;strokeColor=#dd1d1d;" vertex="1" parent="fpgdIOVgUfdw2cn759-M-180">
          <mxGeometry width="30" height="30" as="geometry">
            <mxRectangle width="30" height="30" as="alternateBounds" />
          </mxGeometry>
        </mxCell>
        <mxCell id="fpgdIOVgUfdw2cn759-M-182" value="Teacher_id int NOT NULL " style="shape=partialRectangle;overflow=hidden;connectable=0;align=left;top=0;left=0;bottom=0;right=0;spacingLeft=6;fontStyle=5;swimlaneFillColor=none;fillColor=#f8cecc;strokeColor=#dd1d1d;" vertex="1" parent="fpgdIOVgUfdw2cn759-M-180">
          <mxGeometry x="30" width="170" height="30" as="geometry">
            <mxRectangle width="170" height="30" as="alternateBounds" />
          </mxGeometry>
        </mxCell>
        <mxCell id="fpgdIOVgUfdw2cn759-M-183" value="" style="shape=tableRow;horizontal=0;startSize=0;swimlaneHead=0;swimlaneBody=0;collapsible=0;dropTarget=0;points=[[0,0.5],[1,0.5]];portConstraint=eastwest;top=0;left=0;right=0;bottom=0;swimlaneFillColor=none;fillColor=#f8cecc;strokeColor=#dd1d1d;" vertex="1" parent="fpgdIOVgUfdw2cn759-M-179">
          <mxGeometry y="60" width="200" height="30" as="geometry" />
        </mxCell>
        <mxCell id="fpgdIOVgUfdw2cn759-M-184" value="" style="shape=partialRectangle;overflow=hidden;connectable=0;top=0;left=0;bottom=0;right=0;swimlaneFillColor=none;fillColor=#f8cecc;strokeColor=#dd1d1d;" vertex="1" parent="fpgdIOVgUfdw2cn759-M-183">
          <mxGeometry width="30" height="30" as="geometry">
            <mxRectangle width="30" height="30" as="alternateBounds" />
          </mxGeometry>
        </mxCell>
        <mxCell id="fpgdIOVgUfdw2cn759-M-185" value="Teacher_name char(10)" style="shape=partialRectangle;overflow=hidden;connectable=0;align=left;top=0;left=0;bottom=0;right=0;spacingLeft=6;swimlaneFillColor=none;fillColor=#f8cecc;strokeColor=#dd1d1d;" vertex="1" parent="fpgdIOVgUfdw2cn759-M-183">
          <mxGeometry x="30" width="170" height="30" as="geometry">
            <mxRectangle width="170" height="30" as="alternateBounds" />
          </mxGeometry>
        </mxCell>
        <mxCell id="fpgdIOVgUfdw2cn759-M-186" value="Topics" style="shape=table;startSize=30;container=1;collapsible=1;childLayout=tableLayout;fixedRows=1;rowLines=0;fontStyle=1;align=center;resizeLast=1;swimlaneFillColor=none;fillColor=#f8cecc;strokeColor=#dd1d1d;" vertex="1" parent="1">
          <mxGeometry x="470" y="170" width="190" height="60" as="geometry" />
        </mxCell>
        <mxCell id="fpgdIOVgUfdw2cn759-M-187" value="" style="shape=tableRow;horizontal=0;startSize=0;swimlaneHead=0;swimlaneBody=0;collapsible=0;dropTarget=0;points=[[0,0.5],[1,0.5]];portConstraint=eastwest;top=0;left=0;right=0;bottom=1;swimlaneFillColor=none;fillColor=#f8cecc;strokeColor=#dd1d1d;" vertex="1" parent="fpgdIOVgUfdw2cn759-M-186">
          <mxGeometry y="30" width="190" height="30" as="geometry" />
        </mxCell>
        <mxCell id="fpgdIOVgUfdw2cn759-M-188" value="PK" style="shape=partialRectangle;overflow=hidden;connectable=0;top=0;left=0;bottom=0;right=0;fontStyle=1;swimlaneFillColor=none;fillColor=#f8cecc;strokeColor=#dd1d1d;" vertex="1" parent="fpgdIOVgUfdw2cn759-M-187">
          <mxGeometry width="30" height="30" as="geometry">
            <mxRectangle width="30" height="30" as="alternateBounds" />
          </mxGeometry>
        </mxCell>
        <mxCell id="fpgdIOVgUfdw2cn759-M-189" value="Topics_id int NOT NULL " style="shape=partialRectangle;overflow=hidden;connectable=0;align=left;top=0;left=0;bottom=0;right=0;spacingLeft=6;fontStyle=5;swimlaneFillColor=none;fillColor=#f8cecc;strokeColor=#dd1d1d;" vertex="1" parent="fpgdIOVgUfdw2cn759-M-187">
          <mxGeometry x="30" width="160" height="30" as="geometry">
            <mxRectangle width="160" height="30" as="alternateBounds" />
          </mxGeometry>
        </mxCell>
        <mxCell id="fpgdIOVgUfdw2cn759-M-191" style="edgeStyle=orthogonalEdgeStyle;rounded=0;orthogonalLoop=1;jettySize=auto;html=1;exitX=0;exitY=0.5;exitDx=0;exitDy=0;entryX=1;entryY=0.5;entryDx=0;entryDy=0;startArrow=ERone;startFill=0;endArrow=ERzeroToMany;endFill=0;strokeColor=#dd1d1d;" edge="1" parent="1" source="fpgdIOVgUfdw2cn759-M-180" target="fpgdIOVgUfdw2cn759-M-156">
          <mxGeometry relative="1" as="geometry" />
        </mxCell>
        <mxCell id="fpgdIOVgUfdw2cn759-M-193" style="edgeStyle=orthogonalEdgeStyle;rounded=0;orthogonalLoop=1;jettySize=auto;html=1;exitX=0.5;exitY=1;exitDx=0;exitDy=0;entryX=0.799;entryY=-0.009;entryDx=0;entryDy=0;entryPerimeter=0;startArrow=ERzeroToMany;startFill=0;endArrow=ERmandOne;endFill=0;strokeColor=#dd1d1d;" edge="1" parent="1" source="fpgdIOVgUfdw2cn759-M-169" target="fpgdIOVgUfdw2cn759-M-179">
          <mxGeometry relative="1" as="geometry" />
        </mxCell>
      </root>
    </mxGraphModel>
  </diagram>
</mxfile>
